Coordinates
version=1
nRows=41
nColumns=38
inDegrees=no

Units are S.I. units (second, meters, Newtons, ...)
If the header above contains a line with 'inDegrees', this indicates whether rotational values are in degrees (yes) or radians (no).

endheader
time	pelvis_tilt	pelvis_list	pelvis_rotation	pelvis_tx	pelvis_ty	pelvis_tz	hip_flexion_r	hip_adduction_r	hip_rotation_r	knee_angle_r	ankle_angle_r	subtalar_angle_r	mtp_angle_r	hip_flexion_l	hip_adduction_l	hip_rotation_l	knee_angle_l	ankle_angle_l	subtalar_angle_l	mtp_angle_l	lumbar_extension	lumbar_bending	lumbar_rotation	arm_flex_r	arm_add_r	arm_rot_r	elbow_flex_r	pro_sup_r	wrist_flex_r	wrist_dev_r	arm_flex_l	arm_add_l	arm_rot_l	elbow_flex_l	pro_sup_l	wrist_flex_l	wrist_dev_l
1.44	0.0441433	1.34714	1.55442	0.963479	1.52329	1.02809	0.486476	-0.0472382	-0.124145	0	-0.220654	0	0	-0.0241681	-0.0407383	-0.302177	0.152838	-0.112539	0	0	0.0690838	-0.0378934	0.00971131	-0.22794	-0.306063	0.33949	0.393164	1.23197	0	0	-0.24811	-0.153786	-0.38927	0.497954	0.866909	0	0
1.45	0.0365341	1.34731	1.56421	0.964788	1.5355	1.02619	0.488088	-0.0458665	-0.125849	0	-0.218566	0	0	-0.0300042	-0.0427876	-0.301264	0.166427	-0.113919	0	0	0.0682677	-0.0380699	0.0124021	-0.232416	-0.302069	0.300247	0.394369	1.27218	0	0	-0.245197	-0.15472	-0.389383	0.49953	0.868505	0	0
1.46	0.0319311	1.34824	1.57071	0.966189	1.54782	1.0245	0.48943	-0.0438967	-0.122906	0	-0.213394	0	0	-0.0331308	-0.046658	-0.304155	0.18711	-0.111262	0	0	0.0675322	-0.0378234	0.0127118	-0.231927	-0.303341	0.295371	0.393988	1.27551	0	0	-0.244604	-0.155739	-0.388954	0.502155	0.865949	0	0
1.47	0.0275496	1.34768	1.5789	0.967798	1.56002	1.02309	0.493003	-0.0424446	-0.115847	0	-0.206813	0	0	-0.00722371	-0.0603029	-0.318033	0.246484	-0.10327	0	0	0.0680249	-0.0379496	0.0104471	-0.229197	-0.301892	0.284835	0.389881	1.28302	0	0	-0.24322	-0.158036	-0.38607	0.502197	0.859822	0	0
1.48	0.0358312	1.35056	1.5716	0.969449	1.57279	1.02185	0.492877	-0.0365385	-0.106886	0	-0.209631	0	0	-0.011577	-0.0691961	-0.32557	0.272521	-0.097906	0	0	0.0693031	-0.0355832	0.0032547	-0.213645	-0.322427	0.405076	0.386204	1.1476	0	0	-0.248905	-0.152724	-0.411505	0.506971	0.875367	0	0
1.49	0.0478147	1.35885	1.56088	0.971151	1.58579	1.02114	0.487134	-0.0294548	-0.101636	0.00562055	-0.218937	0	0	-0.0219671	-0.07902	-0.333108	0.297816	-0.103107	0	0	0.0545991	-0.029446	0.0139602	-0.229757	-0.307065	0.267883	0.396699	1.28037	0	0	-0.241333	-0.159232	-0.380235	0.507232	0.856081	0	0
1.5	0.0611448	1.36687	1.54898	0.97283	1.59925	1.02055	0.485997	-0.0221159	-0.110079	0.0479108	-0.22559	0	0	-0.0314119	-0.0887929	-0.338144	0.324346	-0.108763	0	0	0.0464244	-0.0251154	0.0144289	-0.229217	-0.311434	0.269844	0.400427	1.26876	0	0	-0.241997	-0.158894	-0.382289	0.509669	0.86299	0	0
1.51	0.0776222	1.37379	1.53457	0.974522	1.613	1.01994	0.482347	-0.0144503	-0.113293	0.0797265	-0.246613	0	0	-0.0377226	-0.0993015	-0.339087	0.354462	-0.117342	0	0	0.0406509	-0.0203133	0.0137429	-0.229237	-0.316223	0.273613	0.404402	1.25616	0	0	-0.244187	-0.159173	-0.383304	0.511147	0.873952	0	0
1.52	0.0967927	1.37726	1.51797	0.97624	1.62678	1.01922	0.479125	-0.00748079	-0.108303	0.0989393	-0.2761	0	0	-0.0386409	-0.109902	-0.332576	0.386582	-0.127271	0	0	0.0399481	-0.0150141	0.0127568	-0.229895	-0.320596	0.277268	0.40742	1.24461	0	0	-0.246102	-0.159021	-0.385848	0.509968	0.882358	0	0
1.53	0.119735	1.37863	1.49798	0.977988	1.64042	1.01861	0.476887	-0.00136519	-0.102549	0.113348	-0.302355	0	0	-0.0343196	-0.120903	-0.31872	0.422868	-0.138588	0	0	0.0413647	-0.00879575	0.0122183	-0.230777	-0.325108	0.281854	0.410529	1.23162	0	0	-0.246784	-0.158488	-0.388711	0.50683	0.889613	0	0
1.54	0.146214	1.38301	1.47037	0.979788	1.6546	1.01854	0.470986	0.00573869	-0.102474	0.130735	-0.31173	0	0	-0.0575808	-0.125162	-0.325291	0.437382	-0.145837	0	0	0.0408473	-0.00135158	0.0154674	-0.231406	-0.330619	0.288702	0.412487	1.21795	0	0	-0.247728	-0.15571	-0.393622	0.502822	0.892905	0	0
1.55	0.172661	1.37008	1.45274	0.981494	1.66717	1.01759	0.484872	0.0102196	-0.105206	0.155452	-0.305242	0	0	-0.0052482	-0.143325	-0.263574	0.505572	-0.169743	0	0	0.0568828	0.0073519	0.0115427	-0.234618	-0.326773	0.257029	0.411119	1.24214	0	0	-0.246997	-0.159734	-0.373134	0.494653	0.874062	0	0
1.56	0.197777	1.36105	1.43132	0.983178	1.68022	1.01735	0.496328	0.0156743	-0.108878	0.19097	-0.278028	0	0	0.0176461	-0.153503	-0.226377	0.551616	-0.20118	0	0	0.072933	0.015247	0.00560343	-0.227075	-0.338056	0.314493	0.406416	1.17524	0	0	-0.24959	-0.151655	-0.402584	0.487783	0.900216	0	0
1.57	0.234824	1.36169	1.39675	0.98475	1.69258	1.01777	0.49887	0.0226662	-0.10942	0.232668	-0.247398	0	0	0.0301768	-0.164394	-0.18865	0.59811	-0.231954	0	0	0.0271308	0.0232499	0.0262816	-0.232119	-0.324322	0.192436	0.427533	1.26828	0	0	-0.230883	-0.14998	-0.394503	0.508891	0.906107	0	0
1.58	0.249255	1.34612	1.38628	0.986244	1.70519	1.01792	0.517632	0.027936	-0.107553	0.272023	-0.226001	0	0	0.0648813	-0.170376	-0.137589	0.6464	-0.267728	0	0	0.0871779	0.035274	0.0135839	-0.238936	-0.33202	0.21989	0.41776	1.25952	0	0	-0.240029	-0.144637	-0.406508	0.473755	0.912705	0	0
1.59	0.274786	1.33906	1.36524	0.987525	1.71715	1.01824	0.525305	0.0343222	-0.108621	0.305236	-0.207728	0	0	0.0925382	-0.17729	-0.088103	0.695856	-0.303625	0	0	0.0939331	0.0440925	0.0129502	-0.238939	-0.338087	0.222591	0.425582	1.25464	0	0	-0.240426	-0.140158	-0.411217	0.475191	0.917568	0	0
1.6	0.29978	1.3336	1.34623	0.988595	1.72892	1.01853	0.527418	0.0399133	-0.114139	0.328654	-0.192287	0	0	0.120008	-0.182819	-0.0388798	0.74455	-0.342686	0	0	0.0980169	0.051964	0.010152	-0.238581	-0.345612	0.228344	0.436871	1.24967	0	0	-0.242825	-0.136241	-0.41431	0.481616	0.923518	0	0
1.61	0.326045	1.3303	1.32722	0.989555	1.74062	1.01885	0.522845	0.0452373	-0.122361	0.342418	-0.180512	0	0	0.14571	-0.187244	0.00628442	0.790789	-0.377467	0	0	0.0991213	0.059039	0.00567875	-0.237508	-0.35401	0.236374	0.450245	1.24442	0	0	-0.246728	-0.133358	-0.415043	0.492091	0.929204	0	0
1.62	0.352345	1.32837	1.30995	0.990328	1.75224	1.01916	0.513648	0.0499979	-0.132465	0.349594	-0.168632	0	0	0.170593	-0.190263	0.0472673	0.834273	-0.417891	0	0	0.0981305	0.0653468	-0.000474589	-0.236201	-0.364062	0.249162	0.466367	1.23272	0	0	-0.250627	-0.130621	-0.416293	0.504795	0.933338	0	0
1.63	0.376884	1.32725	1.29592	0.990995	1.76366	1.01954	0.50152	0.0544026	-0.140984	0.351343	-0.15865	0	0	0.195103	-0.191583	0.0859471	0.874097	-0.45781	0	0	0.0966689	0.0703344	-0.00862978	-0.232881	-0.374903	0.268091	0.481996	1.21395	0	0	-0.25456	-0.12891	-0.416641	0.51797	0.937295	0	0
1.64	0.39888	1.32913	1.28509	0.991548	1.77495	1.02031	0.485525	0.0576549	-0.149541	0.35071	-0.146665	0	0	0.21642	-0.190159	0.119414	0.910581	-0.501914	0	0	0.086818	0.0762008	-0.00432819	-0.250668	-0.356837	0.139627	0.506268	1.35347	0	0	-0.247979	-0.136475	-0.378252	0.524134	0.918542	0	0
1.65	0.41119	1.32965	1.28275	0.992052	1.78627	1.02124	0.470859	0.0597586	-0.156134	0.347967	-0.141441	0	0	0.238596	-0.185909	0.148151	0.944573	-0.513733	0	0	0.0883392	0.0763919	-0.0183311	-0.235039	-0.380514	0.228529	0.514475	1.25563	0	0	-0.253742	-0.129961	-0.405628	0.53589	0.945376	0	0
1.66	0.417267	1.33206	1.28521	0.992586	1.79756	1.02252	0.45459	0.0604438	-0.16301	0.344911	-0.134356	0	0	0.258358	-0.179083	0.170564	0.974796	-0.517975	0	0	0.0849406	0.0763121	-0.0209915	-0.23492	-0.382701	0.212146	0.528745	1.26971	0	0	-0.252245	-0.131667	-0.398553	0.541533	0.948757	0	0
1.67	0.419769	1.33653	1.28956	0.993152	1.80886	1.02408	0.436413	0.0603422	-0.170577	0.341542	-0.124947	0	0	0.274594	-0.170427	0.186818	1.00107	-0.490666	0	0	0.0771243	0.0765757	-0.0145232	-0.247339	-0.369379	0.123031	0.549843	1.3541	0	0	-0.245874	-0.14206	-0.355522	0.542291	0.925924	0	0
1.68	0.41773	1.34117	1.29548	0.993869	1.8203	1.02572	0.418857	0.0601876	-0.176429	0.339322	-0.119542	0	0	0.29053	-0.163816	0.190406	1.0241	-0.459325	0	0	0.0740077	0.0740324	-0.0138895	-0.245869	-0.37299	0.117977	0.563547	1.34774	0	0	-0.245583	-0.14418	-0.349763	0.546218	0.929273	0	0
1.69	0.409016	1.34541	1.30633	0.994615	1.83164	1.0274	0.402586	0.0592196	-0.180509	0.337865	-0.115295	0	0	0.305881	-0.153401	0.194227	1.04268	-0.424719	0	0	0.0708215	0.0705831	-0.0114031	-0.244791	-0.377727	0.115341	0.579068	1.33823	0	0	-0.244808	-0.145157	-0.347354	0.549704	0.931163	0	0
1.7	0.40994	1.35166	1.3036	0.995775	1.84325	1.02917	0.382959	0.0619082	-0.18132	0.334981	-0.112863	0	0	0.322933	-0.16246	0.161077	1.06175	-0.409228	0	0	0.0658837	0.0678119	-0.00878691	-0.239113	-0.38551	0.128783	0.592026	1.31908	0	0	-0.247735	-0.141401	-0.365142	0.557369	0.947429	0	0
1.71	0.388269	1.35382	1.32589	0.996451	1.8541	1.03077	0.370305	0.058777	-0.18119	0.334716	-0.108804	0	0	0.33801	-0.142069	0.173864	1.06947	-0.35863	0	0	0.0650191	0.0619543	-0.00563951	-0.237005	-0.391201	0.130361	0.608197	1.30103	0	0	-0.248286	-0.145856	-0.350914	0.560078	0.936441	0	0
1.72	0.411149	1.37018	1.29396	0.998266	1.86617	1.03317	0.337537	0.0664616	-0.178776	0.32948	-0.106213	0	0	0.343832	-0.183777	0.0800077	1.08215	-0.33208	0	0	0.0403806	0.0646963	0.0182373	-0.255064	-0.3733	0.0290191	0.642372	1.40143	0	0	-0.242328	-0.152806	-0.320373	0.565584	0.918911	0	0
1.73	0.384904	1.37453	1.31788	0.998979	1.87706	1.03494	0.322488	0.0629016	-0.178968	0.328805	-0.104744	0	0	0.358644	-0.167411	0.0763628	1.08451	-0.308052	0	0	0.0370363	0.0578677	0.0225479	-0.252569	-0.376003	0.0236098	0.65856	1.40196	0	0	-0.242972	-0.153239	-0.320699	0.568039	0.919433	0	0
1.74	0.384042	1.38619	1.31146	1.00033	1.88856	1.03718	0.296676	0.0646991	-0.178076	0.32376	-0.104843	0	0	0.363924	-0.183608	0.0189986	1.08316	-0.290956	0	0	0.0237408	0.0540522	0.0320297	-0.251258	-0.379583	0.0184365	0.679099	1.40108	0	0	-0.244879	-0.153093	-0.322161	0.574881	0.919903	0	0
1.75	0.370952	1.39425	1.31908	1.00135	1.89966	1.03918	0.276227	0.0635964	-0.179716	0.320841	-0.105394	0	0	0.373095	-0.185065	-0.0148039	1.07755	-0.275991	0	0	0.0153522	0.0487156	0.0385976	-0.248594	-0.383177	0.0163373	0.697278	1.39778	0	0	-0.246854	-0.152842	-0.323723	0.580067	0.921385	0	0
1.76	0.35775	1.40262	1.32681	1.00226	1.91072	1.04118	0.254594	0.0621656	-0.180768	0.315619	-0.107196	0	0	0.380761	-0.186683	-0.0480054	1.06763	-0.263344	0	0	0.00625839	0.0434552	0.0450291	-0.245988	-0.387595	0.0161865	0.716259	1.39167	0	0	-0.24862	-0.152264	-0.325194	0.585514	0.924111	0	0
1.77	0.345421	1.41134	1.33448	1.00299	1.92174	1.04319	0.231404	0.0606575	-0.179747	0.307759	-0.109793	0	0	0.38692	-0.188174	-0.0790256	1.05372	-0.253634	0	0	-0.00272622	0.0383842	0.0514473	-0.243924	-0.393043	0.0189709	0.735136	1.38121	0	0	-0.249088	-0.150689	-0.328028	0.590121	0.926746	0	0
1.78	0.332964	1.41878	1.34274	1.00362	1.93268	1.04505	0.209653	0.0591165	-0.179186	0.300507	-0.111938	0	0	0.393507	-0.189666	-0.107461	1.03633	-0.247381	0	0	-0.00969359	0.0332804	0.0563363	-0.240243	-0.400286	0.0288742	0.75224	1.36534	0	0	-0.249523	-0.14708	-0.335453	0.594609	0.926764	0	0
1.79	0.314559	1.42601	1.35625	1.00412	1.94346	1.04677	0.190202	0.0560674	-0.18434	0.297571	-0.114332	0	0	0.39908	-0.189843	-0.135149	1.01508	-0.239457	0	0	-0.0209259	0.0290275	0.0712579	-0.250708	-0.383977	-0.035484	0.77753	1.44258	0	0	-0.242606	-0.149899	-0.316027	0.594993	0.919459	0	0
1.8	0.292807	1.42973	1.37393	1.00453	1.95417	1.04811	0.175279	0.0530322	-0.190745	0.29678	-0.117292	0	0	0.407789	-0.189934	-0.162245	0.990886	-0.236251	0	0	-0.0244749	0.0240949	0.0762673	-0.249465	-0.386322	-0.038458	0.795376	1.44442	0	0	-0.242574	-0.148196	-0.315845	0.598028	0.923877	0	0
1.81	0.524117	1.44501	1.14185	1.00463	1.965	1.05437	0.159677	0.0494665	-0.412989	0.356631	-0.155397	0	0	0.393568	-0.221894	-0.186722	0.959942	-0.239479	0	0	-0.0545388	0.05011	0.0805984	-0.230875	-0.399158	-0.0177067	0.793985	1.41845	0	0	-0.222581	-0.140308	-0.315539	0.572883	0.93335	0	0
1.82	0.527627	1.45124	1.13642	1.00481	1.97565	1.05573	0.138772	0.0491115	-0.410173	0.348373	-0.159329	0	0	0.397234	-0.22235	-0.21189	0.929445	-0.236102	0	0	-0.0635731	0.0469819	0.0864459	-0.233673	-0.395096	-0.0404167	0.8156	1.44256	0	0	-0.219127	-0.138964	-0.311643	0.576247	0.934457	0	0
1.83	0.51115	1.4525	1.15077	1.00503	1.98626	1.05648	0.124659	0.0484463	-0.407369	0.342121	-0.159483	0	0	0.406042	-0.222376	-0.237059	0.89662	-0.235194	0	0	-0.0635521	0.0435333	0.087516	-0.231372	-0.397874	-0.0388654	0.831801	1.442	0	0	-0.219553	-0.137739	-0.310422	0.578833	0.93602	0	0
1.84	0.231175	1.43872	1.42607	1.00558	1.99659	1.05178	0.113051	0.0474178	-0.196106	0.274447	-0.125023	0	0	0.437996	-0.19105	-0.263533	0.863541	-0.228838	0	0	-0.0339322	0.0101942	0.085488	-0.243006	-0.395542	-0.0432656	0.865342	1.44644	0	0	-0.241793	-0.143259	-0.309799	0.610634	0.932233	0	0
